<svg width="97" height="49" viewBox="0 0 97 49" fill="none" xmlns="http://www.w3.org/2000/svg">
<g clip-path="url(#clip0)">
<path d="M59.5191 28.837C60.1219 28.8018 60.6715 28.7842 61.2744 28.7491C65.5118 34.0625 69.7315 39.3584 73.9512 44.6543C74.0044 44.6367 74.0753 44.6191 74.1285 44.6015C74.1285 39.3936 74.1285 34.1681 74.1285 28.8898C74.8909 28.8898 75.5469 28.8898 76.2738 28.8898C76.2738 35.5404 76.2738 42.1031 76.2738 48.7713C75.7065 48.7713 75.1568 48.7713 74.4831 48.7713C70.3343 43.5986 66.1323 38.3555 61.9126 33.0948C61.8417 33.1124 61.7708 33.13 61.6999 33.1652C61.6999 38.3555 61.6999 43.5634 61.6999 48.8065C60.902 48.8065 60.246 48.8065 59.5014 48.8065C59.5191 42.1383 59.5191 35.558 59.5191 28.837Z" fill="black"/>
<path d="M54.803 38.8305C55.0866 44.1088 50.6896 48.9824 44.2714 49C38.3319 49.0176 33.7576 44.707 33.6513 39.0241C33.5449 33.2356 38.1724 28.8018 44.0764 28.6786C50.1045 28.5555 55.0866 33.1828 54.803 38.8305ZM44.2005 46.9767C49.0408 47.047 52.5335 43.7041 52.5867 38.9361C52.6399 34.1681 49.1826 30.702 44.3069 30.6316C39.6085 30.5788 36.0093 34.0449 35.8675 38.637C35.7434 42.9828 39.112 47.0646 44.2005 46.9767Z" fill="black"/>
<path d="M82.8516 48.7713C82.8516 42.1382 82.8516 35.5404 82.8516 28.8722C87.4436 28.8722 91.9647 28.8722 96.5568 28.8722C96.5568 29.5056 96.5568 30.0686 96.5568 30.7372C92.7271 30.7372 88.9329 30.7372 85.0501 30.7372C85.0501 33.0948 85.0501 35.3468 85.0501 37.7221C88.472 37.7221 91.8406 37.7221 95.2802 37.7221C95.2802 38.3731 95.2802 38.9185 95.2802 39.6047C91.8761 39.6047 88.4719 39.6047 85.0146 39.6047C85.0146 42.0678 85.0146 44.4079 85.0146 46.8711C89.0038 46.8711 92.9753 46.8711 97 46.8711C97 47.5748 97 48.1379 97 48.7713C92.2661 48.7713 87.5855 48.7713 82.8516 48.7713Z" fill="black"/>
<path d="M0 46.3785C0.301407 45.7979 0.549625 45.3052 0.815573 44.8126C1.64888 45.2876 2.39353 45.7803 3.2091 46.1497C5.42533 47.1702 7.76567 47.311 10.1237 46.7831C11.5421 46.4664 12.6414 45.2876 12.801 44.056C12.9782 42.5605 12.2513 41.3817 10.567 40.8011C8.84719 40.2029 7.05648 39.8158 5.31895 39.2352C4.23743 38.8657 3.12045 38.4786 2.23396 37.8101C-0.141839 36.033 -0.0886493 32.2151 2.25169 30.3677C3.51051 29.3824 4.96436 28.8546 6.57777 28.749C9.00676 28.5907 11.3471 28.837 13.5101 30.0334C13.7052 30.139 13.9002 30.2621 14.2016 30.4557C13.9711 31.0187 13.7406 31.5641 13.4747 32.1975C11.8613 31.2298 10.2124 30.6492 8.40395 30.5612C7.05648 30.5085 5.74447 30.614 4.52111 31.2474C3.35094 31.8632 2.71267 32.8133 2.7304 34.1505C2.7304 35.4524 3.42186 36.3673 4.5743 36.7896C6.34729 37.423 8.19119 37.8628 9.98191 38.4083C10.8152 38.6722 11.6662 38.9537 12.4641 39.3408C16.1874 41.1178 15.5845 46.0794 12.6768 47.7684C11.2053 48.6305 9.60958 48.9648 7.94297 49C5.35441 49.0528 2.9077 48.5426 0.744654 47.0119C0.514166 46.8359 0.301407 46.6424 0 46.3785Z" fill="black"/>
<path d="M25.3891 48.7889C24.609 48.7889 23.9708 48.7889 23.2084 48.7889C23.2084 42.7893 23.2084 36.8248 23.2084 30.7724C20.8326 30.7724 18.5809 30.7724 16.2228 30.7724C16.2228 30.1214 16.2228 29.5408 16.2228 28.8898C21.5595 28.8898 26.9139 28.8898 32.357 28.8898C32.357 29.4704 32.357 30.0686 32.357 30.7724C30.0521 30.7724 27.7827 30.7724 25.3714 30.7724C25.3891 36.8424 25.3891 42.7893 25.3891 48.7889Z" fill="black"/>
<path d="M27.304 17.9285C31.2577 17.9285 35.1583 17.9285 39.1652 17.9285C39.1652 18.5795 39.1652 19.1425 39.1652 19.7759C34.4491 19.7759 29.7684 19.7759 25.0168 19.7759C25.0168 13.2133 25.0168 6.66821 25.0168 0.0175781C29.5734 0.0175781 34.13 0.0175781 38.7752 0.0175781C38.7752 0.633377 38.7752 1.21399 38.7752 1.90016C34.9633 1.90016 31.1691 1.90016 27.304 1.90016C27.304 4.20501 27.304 6.40429 27.304 8.76192C30.6904 8.76192 34.0768 8.76192 37.5164 8.76192C37.5164 9.4481 37.5164 9.97593 37.5164 10.6445C34.13 10.6445 30.7613 10.6445 27.304 10.6445C27.304 13.1253 27.304 15.4829 27.304 17.9285Z" fill="black"/>
<path d="M88.5961 14.6032C84.8905 14.6032 81.2914 14.6032 77.5858 14.6032C76.8057 16.3099 76.0256 18.0341 75.2277 19.7935C74.4831 19.7935 73.7562 19.7935 72.9229 19.7935C75.9724 13.1605 78.9865 6.59785 82.0183 0C82.7629 0 83.4544 0 84.199 0C87.2308 6.59785 90.2627 13.1429 93.3122 19.7935C92.4789 19.7935 91.8052 19.7935 91.025 19.7935C90.2449 18.1045 89.4294 16.3627 88.5961 14.6032ZM78.4191 12.7382C81.575 12.7382 84.6068 12.7382 87.7805 12.7382C86.2203 9.27217 84.6955 5.89408 83.0998 2.32244C81.5041 5.89408 79.9793 9.27217 78.4191 12.7382Z" fill="black"/>
<path d="M11.1698 19.7935C8.24438 13.2836 5.33668 6.73858 2.34034 0.0703591C3.19137 0.0703591 3.9183 0.0703591 4.7516 0.0703591C7.23378 5.63014 9.71596 11.2427 12.3045 17.0488C14.8931 11.2955 17.393 5.70052 19.9284 0.0527649C20.6553 0.0527649 21.329 0.0527649 22.18 0.0527649C19.2369 6.6858 16.3115 13.2133 13.386 19.7935C12.6591 19.7935 11.9676 19.7935 11.1698 19.7935Z" fill="black"/>
<path d="M57.1078 0.0704041C57.1078 0.668609 57.1078 1.21403 57.1078 1.86502C54.803 1.86502 52.5513 1.86502 50.1932 1.86502C50.1932 7.88225 50.1932 13.7939 50.1932 19.776C49.4308 19.776 48.7571 19.776 47.977 19.776C47.977 13.8643 47.977 7.93504 47.977 1.9178C45.6012 1.9178 43.3317 1.9178 41.0269 1.9178C41.0269 1.26681 41.0269 0.721391 41.0269 0.0879983C46.3636 0.0704041 51.7002 0.0704041 57.1078 0.0704041Z" fill="black"/>
<path d="M64.643 1.90018C62.2495 1.90018 60.0155 1.90018 57.7107 1.90018C57.7107 1.26678 57.7107 0.721363 57.7107 0.0351868C63.0473 0.0351868 68.384 0.0351868 73.7916 0.0351868C73.7916 0.66858 73.7916 1.214 73.7916 1.86499C71.4867 1.86499 69.2351 1.86499 66.8593 1.86499C66.8593 7.88222 66.8593 13.7763 66.8593 19.7583C66.0791 19.7583 65.4054 19.7583 64.643 19.7583C64.643 13.8643 64.643 7.97019 64.643 1.90018Z" fill="black"/>
</g>
<defs>
<clipPath id="clip0">
<rect width="97" height="49" fill="white"/>
</clipPath>
</defs>
</svg>
